<svg width="1200" height="800" viewBox="0 0 1200 800" fill="none" xmlns="http://www.w3.org/2000/svg">
  <rect width="1200" height="800" fill="#060709"/>
  <rect width="1200" height="800" fill="url(#bg)"/>
  <circle cx="930" cy="164" r="198" fill="#F3B861" fill-opacity="0.08"/>
  <rect x="90" y="134" width="1020" height="430" rx="36" fill="#11151C" stroke="#F3B861" stroke-opacity="0.08"/>
  <rect x="198" y="188" width="236" height="146" rx="18" fill="#18202A"/>
  <rect x="478" y="188" width="244" height="146" rx="18" fill="#141B24"/>
  <rect x="768" y="188" width="240" height="146" rx="18" fill="#19212B"/>
  <rect x="198" y="368" width="236" height="140" rx="18" fill="#141C24"/>
  <rect x="478" y="368" width="244" height="140" rx="18" fill="#192430"/>
  <rect x="768" y="368" width="240" height="140" rx="18" fill="#101821"/>
  <path d="M456 148V544" stroke="#F4EBDD" stroke-opacity="0.14" stroke-width="12"/>
  <path d="M744 148V544" stroke="#F4EBDD" stroke-opacity="0.14" stroke-width="12"/>
  <path d="M138 350H1062" stroke="#F4EBDD" stroke-opacity="0.14" stroke-width="12"/>
  <path d="M144 350H1058" stroke="#F3B861" stroke-opacity="0.24" stroke-width="4" stroke-dasharray="18 18"/>
  <rect x="90" y="598" width="1020" height="120" rx="22" fill="#090B10" fill-opacity="0.88" stroke="#F3B861" stroke-opacity="0.18"/>
  <text x="132" y="656" fill="#F5EBD7" font-family="Geist, Arial, sans-serif" font-size="42" font-weight="700">Campus Grid</text>
  <text x="132" y="696" fill="#BFC9D3" font-family="Satoshi, Arial, sans-serif" font-size="22">Clean replay scenario tuned for fast scans, high confidence, and report export.</text>
  <defs>
    <linearGradient id="bg" x1="130" y1="54" x2="1014" y2="734" gradientUnits="userSpaceOnUse">
      <stop stop-color="#141921"/>
      <stop offset="0.45" stop-color="#0B1016"/>
      <stop offset="1" stop-color="#050608"/>
    </linearGradient>
  </defs>
</svg>
