<svg width="1200" height="800" viewBox="0 0 1200 800" fill="none" xmlns="http://www.w3.org/2000/svg">
  <rect width="1200" height="800" fill="#08090C"/>
  <rect width="1200" height="800" fill="url(#bg)"/>
  <circle cx="895" cy="148" r="204" fill="#F3B861" fill-opacity="0.08"/>
  <path d="M0 560L215 468L380 520L572 422L740 486L938 350L1200 432V800H0V560Z" fill="#0F1118"/>
  <path d="M0 648L192 584L360 624L560 552L736 606L938 534L1200 602V800H0V648Z" fill="#141824"/>
  <g opacity="0.92">
    <rect x="134" y="210" width="146" height="356" rx="8" fill="#111621"/>
    <rect x="298" y="154" width="176" height="412" rx="8" fill="#171D2A"/>
    <rect x="496" y="102" width="188" height="464" rx="8" fill="#1E2635"/>
    <rect x="714" y="174" width="158" height="392" rx="8" fill="#121827"/>
    <rect x="894" y="128" width="170" height="438" rx="8" fill="#0E1320"/>
  </g>
  <g opacity="0.7" stroke="#F2E7D0" stroke-opacity="0.2">
    <path d="M190 250V525"/>
    <path d="M245 250V525"/>
    <path d="M352 194V526"/>
    <path d="M420 194V526"/>
    <path d="M552 142V534"/>
    <path d="M628 142V534"/>
    <path d="M768 214V534"/>
    <path d="M828 214V534"/>
    <path d="M950 168V534"/>
    <path d="M1012 168V534"/>
  </g>
  <rect x="88" y="598" width="1024" height="120" rx="22" fill="#090B10" fill-opacity="0.88" stroke="#F3B861" stroke-opacity="0.18"/>
  <text x="132" y="656" fill="#F4EBD8" font-family="Geist, Arial, sans-serif" font-size="42" font-weight="700">Downtown EXIF Lock</text>
  <text x="132" y="696" fill="#B4A68B" font-family="Satoshi, Arial, sans-serif" font-size="22">Embedded GPS survives universal format conversion and anchors the final fix.</text>
  <defs>
    <linearGradient id="bg" x1="161" y1="44" x2="1031" y2="760" gradientUnits="userSpaceOnUse">
      <stop stop-color="#18120F"/>
      <stop offset="0.48" stop-color="#0D1118"/>
      <stop offset="1" stop-color="#050608"/>
    </linearGradient>
  </defs>
</svg>
