<svg width="1200" height="800" viewBox="0 0 1200 800" fill="none" xmlns="http://www.w3.org/2000/svg">
  <rect width="1200" height="800" fill="#06080C"/>
  <rect width="1200" height="800" fill="url(#bg)"/>
  <circle cx="986" cy="170" r="196" fill="#84D6FF" fill-opacity="0.08"/>
  <path d="M0 462H1200V800H0V462Z" fill="#071018"/>
  <path d="M0 514H1200V800H0V514Z" fill="#0A1722"/>
  <path d="M72 428L284 334L512 396L694 312L862 370L1084 258" stroke="#F3B861" stroke-width="18" stroke-linecap="round" stroke-linejoin="round"/>
  <path d="M154 486L334 422L514 480L690 412L860 466L1046 390" stroke="#93D3F6" stroke-opacity="0.48" stroke-width="10" stroke-linecap="round" stroke-dasharray="18 18"/>
  <g>
    <rect x="134" y="212" width="94" height="162" rx="6" fill="#131B24"/>
    <rect x="262" y="184" width="142" height="190" rx="6" fill="#0F202D"/>
    <rect x="444" y="148" width="122" height="226" rx="6" fill="#142536"/>
    <rect x="618" y="176" width="134" height="198" rx="6" fill="#13212F"/>
    <rect x="784" y="194" width="118" height="180" rx="6" fill="#162432"/>
  </g>
  <path d="M0 542C136 518 222 616 342 602C488 586 524 474 706 486C888 498 958 612 1200 554V800H0V542Z" fill="#0D2333"/>
  <rect x="90" y="598" width="1020" height="120" rx="22" fill="#081019" fill-opacity="0.88" stroke="#7AC7EC" stroke-opacity="0.18"/>
  <text x="134" y="656" fill="#EDF7FF" font-family="Geist, Arial, sans-serif" font-size="42" font-weight="700">Harbor OSV Sweep</text>
  <text x="134" y="696" fill="#A3C3D3" font-family="Satoshi, Arial, sans-serif" font-size="22">Street-scene enrichment compresses the waterfront corridor into a tighter approach lane.</text>
  <defs>
    <linearGradient id="bg" x1="146" y1="70" x2="964" y2="760" gradientUnits="userSpaceOnUse">
      <stop stop-color="#11161D"/>
      <stop offset="0.38" stop-color="#0C1722"/>
      <stop offset="1" stop-color="#050709"/>
    </linearGradient>
  </defs>
</svg>
