<svg width="1200" height="800" viewBox="0 0 1200 800" fill="none" xmlns="http://www.w3.org/2000/svg">
  <rect width="1200" height="800" fill="#070707"/>
  <rect width="1200" height="800" fill="url(#bg)"/>
  <circle cx="905" cy="162" r="208" fill="#F3B861" fill-opacity="0.08"/>
  <path d="M0 558L176 514L324 550L500 478L678 534L844 486L1006 524L1200 462V800H0V558Z" fill="#0F100F"/>
  <g opacity="0.92">
    <rect x="106" y="230" width="166" height="220" rx="8" fill="#171717"/>
    <rect x="300" y="184" width="194" height="266" rx="8" fill="#1D1D1B"/>
    <rect x="534" y="156" width="178" height="294" rx="8" fill="#141513"/>
    <rect x="742" y="202" width="154" height="248" rx="8" fill="#101212"/>
  </g>
  <path d="M154 232V128H194V232" stroke="#C6D0D8" stroke-width="10"/>
  <path d="M352 184V106H404V184" stroke="#C6D0D8" stroke-width="10"/>
  <path d="M600 156V88H654V156" stroke="#C6D0D8" stroke-width="10"/>
  <path d="M792 202V126H842V202" stroke="#C6D0D8" stroke-width="10"/>
  <path d="M0 470H1200" stroke="#F3B861" stroke-opacity="0.16" stroke-width="2"/>
  <path d="M0 514H1200" stroke="#F3B861" stroke-opacity="0.12" stroke-width="2"/>
  <path d="M94 412L324 358L530 392L762 334L1032 374" stroke="#FF8A4A" stroke-opacity="0.45" stroke-width="12" stroke-linecap="round" stroke-dasharray="24 16"/>
  <rect x="90" y="594" width="1020" height="124" rx="22" fill="#080808" fill-opacity="0.9" stroke="#F3B861" stroke-opacity="0.18"/>
  <text x="132" y="654" fill="#F5E7D0" font-family="Geist, Arial, sans-serif" font-size="42" font-weight="700">Industrial Signal Stack</text>
  <text x="132" y="694" fill="#B8A58C" font-family="Satoshi, Arial, sans-serif" font-size="22">Verifier, anomaly overlays, and generated briefs stack on top of the base geolocation result.</text>
  <defs>
    <linearGradient id="bg" x1="120" y1="80" x2="1006" y2="748" gradientUnits="userSpaceOnUse">
      <stop stop-color="#1B1511"/>
      <stop offset="0.45" stop-color="#11100E"/>
      <stop offset="1" stop-color="#060606"/>
    </linearGradient>
  </defs>
</svg>
