<svg width="1200" height="800" viewBox="0 0 1200 800" fill="none" xmlns="http://www.w3.org/2000/svg">
  <rect width="1200" height="800" fill="#060709"/>
  <rect width="1200" height="800" fill="url(#bg)"/>
  <circle cx="860" cy="162" r="180" fill="#B7D7FF" fill-opacity="0.08"/>
  <path d="M0 486L154 360L286 420L412 278L540 404L680 246L820 372L960 300L1200 444V800H0V486Z" fill="#141A23"/>
  <path d="M0 556L182 418L314 492L430 382L568 514L714 336L850 464L1002 402L1200 530V800H0V556Z" fill="#0D131D"/>
  <path d="M82 518L246 434L362 482L510 412L648 474L790 418L972 486" stroke="#E7EEF5" stroke-opacity="0.18" stroke-width="5"/>
  <path d="M140 584L280 528L430 566L596 520L750 562L918 538L1082 578" stroke="#F3B861" stroke-opacity="0.22" stroke-width="8" stroke-linecap="round" stroke-dasharray="18 12"/>
  <rect x="90" y="598" width="1020" height="120" rx="22" fill="#090B10" fill-opacity="0.88" stroke="#D59E45" stroke-opacity="0.18"/>
  <text x="132" y="656" fill="#F3EBD8" font-family="Geist, Arial, sans-serif" font-size="42" font-weight="700">Mountain Ridge Hold</text>
  <text x="132" y="696" fill="#B7C0D2" font-family="Satoshi, Arial, sans-serif" font-size="22">Low-confidence terrain case kept withheld in operator-safe mode for responsible replay.</text>
  <defs>
    <linearGradient id="bg" x1="158" y1="78" x2="922" y2="742" gradientUnits="userSpaceOnUse">
      <stop stop-color="#131821"/>
      <stop offset="0.48" stop-color="#0C1218"/>
      <stop offset="1" stop-color="#060709"/>
    </linearGradient>
  </defs>
</svg>
